<mxfile host="app.diagrams.net" agent="Mozilla/5.0 (Windows NT 10.0; Win64; x64) AppleWebKit/537.36 (KHTML, like Gecko) Chrome/127.0.0.0 Safari/537.36" version="24.7.7">
  <diagram name="Página-1" id="o9ED0ybiNR2Vtzijb05e">
    <mxGraphModel dx="880" dy="468" grid="1" gridSize="10" guides="1" tooltips="1" connect="1" arrows="1" fold="1" page="1" pageScale="1" pageWidth="827" pageHeight="1169" math="0" shadow="0">
      <root>
        <mxCell id="0" />
        <mxCell id="1" parent="0" />
        <mxCell id="wtO21gAcNz2oJEFU-99T-1" value="(n,1)" style="edgeStyle=orthogonalEdgeStyle;rounded=0;orthogonalLoop=1;jettySize=auto;html=1;entryX=0;entryY=0.5;entryDx=0;entryDy=0;verticalAlign=bottom;" edge="1" parent="1" source="wtO21gAcNz2oJEFU-99T-3" target="wtO21gAcNz2oJEFU-99T-18">
          <mxGeometry relative="1" as="geometry">
            <mxPoint x="414" y="170" as="targetPoint" />
          </mxGeometry>
        </mxCell>
        <mxCell id="wtO21gAcNz2oJEFU-99T-2" value="(1,n)" style="rounded=0;orthogonalLoop=1;jettySize=auto;html=1;exitX=1;exitY=1;exitDx=0;exitDy=0;entryX=0;entryY=0;entryDx=0;entryDy=0;verticalAlign=middle;labelPosition=center;verticalLabelPosition=middle;align=center;spacingRight=0;spacing=4;" edge="1" parent="1" source="wtO21gAcNz2oJEFU-99T-3" target="wtO21gAcNz2oJEFU-99T-20">
          <mxGeometry relative="1" as="geometry" />
        </mxCell>
        <mxCell id="wtO21gAcNz2oJEFU-99T-3" value="Usuário" style="rounded=1;whiteSpace=wrap;html=1;" vertex="1" parent="1">
          <mxGeometry x="160" y="140" width="150" height="60" as="geometry" />
        </mxCell>
        <mxCell id="wtO21gAcNz2oJEFU-99T-4" value="(1,n)" style="edgeStyle=orthogonalEdgeStyle;rounded=0;orthogonalLoop=1;jettySize=auto;html=1;entryX=0;entryY=0.5;entryDx=0;entryDy=0;verticalAlign=bottom;" edge="1" parent="1" target="wtO21gAcNz2oJEFU-99T-6">
          <mxGeometry x="-0.0047" relative="1" as="geometry">
            <mxPoint x="610" y="170" as="targetPoint" />
            <mxPoint x="534" y="170" as="sourcePoint" />
            <mxPoint as="offset" />
          </mxGeometry>
        </mxCell>
        <mxCell id="wtO21gAcNz2oJEFU-99T-5" style="edgeStyle=orthogonalEdgeStyle;rounded=0;orthogonalLoop=1;jettySize=auto;html=1;exitX=1;exitY=0.5;exitDx=0;exitDy=0;endSize=10;endArrow=oval;endFill=0;entryX=0;entryY=0.5;entryDx=0;entryDy=0;" edge="1" parent="1" source="wtO21gAcNz2oJEFU-99T-6" target="wtO21gAcNz2oJEFU-99T-39">
          <mxGeometry relative="1" as="geometry">
            <mxPoint x="850" y="170" as="targetPoint" />
          </mxGeometry>
        </mxCell>
        <mxCell id="wtO21gAcNz2oJEFU-99T-6" value="Catálogo" style="rounded=1;whiteSpace=wrap;html=1;" vertex="1" parent="1">
          <mxGeometry x="640" y="140" width="180" height="60" as="geometry" />
        </mxCell>
        <mxCell id="wtO21gAcNz2oJEFU-99T-7" style="edgeStyle=orthogonalEdgeStyle;rounded=0;orthogonalLoop=1;jettySize=auto;html=1;exitX=1;exitY=0;exitDx=0;exitDy=0;endArrow=oval;endFill=0;endSize=10;" edge="1" parent="1">
          <mxGeometry relative="1" as="geometry">
            <mxPoint x="295" y="90" as="targetPoint" />
            <mxPoint x="295" y="140" as="sourcePoint" />
          </mxGeometry>
        </mxCell>
        <mxCell id="wtO21gAcNz2oJEFU-99T-8" style="edgeStyle=orthogonalEdgeStyle;rounded=0;orthogonalLoop=1;jettySize=auto;html=1;exitX=1;exitY=0;exitDx=0;exitDy=0;endArrow=oval;endFill=0;endSize=10;" edge="1" parent="1">
          <mxGeometry relative="1" as="geometry">
            <mxPoint x="265" y="90" as="targetPoint" />
            <mxPoint x="265" y="140" as="sourcePoint" />
          </mxGeometry>
        </mxCell>
        <mxCell id="wtO21gAcNz2oJEFU-99T-9" style="edgeStyle=orthogonalEdgeStyle;rounded=0;orthogonalLoop=1;jettySize=auto;html=1;exitX=1;exitY=0;exitDx=0;exitDy=0;endArrow=oval;endFill=0;endSize=10;" edge="1" parent="1">
          <mxGeometry relative="1" as="geometry">
            <mxPoint x="235" y="90" as="targetPoint" />
            <mxPoint x="235" y="140" as="sourcePoint" />
          </mxGeometry>
        </mxCell>
        <mxCell id="wtO21gAcNz2oJEFU-99T-10" style="edgeStyle=orthogonalEdgeStyle;rounded=0;orthogonalLoop=1;jettySize=auto;html=1;exitX=1;exitY=0;exitDx=0;exitDy=0;endArrow=oval;endFill=0;endSize=10;" edge="1" parent="1">
          <mxGeometry relative="1" as="geometry">
            <mxPoint x="205" y="90" as="targetPoint" />
            <mxPoint x="205" y="140" as="sourcePoint" />
          </mxGeometry>
        </mxCell>
        <mxCell id="wtO21gAcNz2oJEFU-99T-11" style="edgeStyle=orthogonalEdgeStyle;rounded=0;orthogonalLoop=1;jettySize=auto;html=1;exitX=1;exitY=0;exitDx=0;exitDy=0;endArrow=oval;endFill=1;endSize=10;" edge="1" parent="1">
          <mxGeometry relative="1" as="geometry">
            <mxPoint x="175" y="90" as="targetPoint" />
            <mxPoint x="175" y="140" as="sourcePoint" />
          </mxGeometry>
        </mxCell>
        <mxCell id="wtO21gAcNz2oJEFU-99T-12" value="Código" style="rounded=1;whiteSpace=wrap;html=1;rotation=-90;" vertex="1" parent="1">
          <mxGeometry x="145" y="40" width="60" height="30" as="geometry" />
        </mxCell>
        <mxCell id="wtO21gAcNz2oJEFU-99T-13" value="Nome" style="rounded=1;whiteSpace=wrap;html=1;rotation=-90;" vertex="1" parent="1">
          <mxGeometry x="175" y="40" width="60" height="30" as="geometry" />
        </mxCell>
        <mxCell id="wtO21gAcNz2oJEFU-99T-14" value="Email" style="rounded=1;whiteSpace=wrap;html=1;rotation=-90;" vertex="1" parent="1">
          <mxGeometry x="205" y="40" width="60" height="30" as="geometry" />
        </mxCell>
        <mxCell id="wtO21gAcNz2oJEFU-99T-15" value="Senha" style="rounded=1;whiteSpace=wrap;html=1;rotation=-90;" vertex="1" parent="1">
          <mxGeometry x="235" y="40" width="60" height="30" as="geometry" />
        </mxCell>
        <mxCell id="wtO21gAcNz2oJEFU-99T-16" value="Data" style="rounded=1;whiteSpace=wrap;html=1;rotation=-90;" vertex="1" parent="1">
          <mxGeometry x="265" y="40" width="60" height="30" as="geometry" />
        </mxCell>
        <mxCell id="wtO21gAcNz2oJEFU-99T-17" value="(n,1)" style="edgeStyle=orthogonalEdgeStyle;rounded=0;orthogonalLoop=1;jettySize=auto;html=1;exitX=0.5;exitY=1;exitDx=0;exitDy=0;entryX=0.5;entryY=0;entryDx=0;entryDy=0;" edge="1" parent="1" target="wtO21gAcNz2oJEFU-99T-20">
          <mxGeometry relative="1" as="geometry">
            <mxPoint x="477" y="280" as="targetPoint" />
            <mxPoint x="476.75" y="200" as="sourcePoint" />
          </mxGeometry>
        </mxCell>
        <mxCell id="wtO21gAcNz2oJEFU-99T-18" value="FIlmes" style="shape=associativeEntity;whiteSpace=wrap;html=1;align=center;" vertex="1" parent="1">
          <mxGeometry x="413.5" y="140" width="126.5" height="60" as="geometry" />
        </mxCell>
        <mxCell id="wtO21gAcNz2oJEFU-99T-19" value="(n,1)" style="rounded=0;orthogonalLoop=1;jettySize=auto;html=1;exitX=1;exitY=0;exitDx=0;exitDy=0;entryX=0;entryY=1;entryDx=0;entryDy=0;" edge="1" parent="1" source="wtO21gAcNz2oJEFU-99T-20" target="wtO21gAcNz2oJEFU-99T-6">
          <mxGeometry relative="1" as="geometry" />
        </mxCell>
        <mxCell id="wtO21gAcNz2oJEFU-99T-20" value="Lista de Filmes" style="rounded=1;whiteSpace=wrap;html=1;" vertex="1" parent="1">
          <mxGeometry x="411.75" y="300" width="130" height="60" as="geometry" />
        </mxCell>
        <mxCell id="wtO21gAcNz2oJEFU-99T-21" style="edgeStyle=orthogonalEdgeStyle;rounded=0;orthogonalLoop=1;jettySize=auto;html=1;exitX=1;exitY=0;exitDx=0;exitDy=0;endArrow=oval;endFill=0;endSize=10;" edge="1" parent="1">
          <mxGeometry relative="1" as="geometry">
            <mxPoint x="765" y="90" as="targetPoint" />
            <mxPoint x="765" y="140" as="sourcePoint" />
          </mxGeometry>
        </mxCell>
        <mxCell id="wtO21gAcNz2oJEFU-99T-22" style="edgeStyle=orthogonalEdgeStyle;rounded=0;orthogonalLoop=1;jettySize=auto;html=1;exitX=1;exitY=0;exitDx=0;exitDy=0;endArrow=oval;endFill=0;endSize=10;" edge="1" parent="1">
          <mxGeometry relative="1" as="geometry">
            <mxPoint x="735" y="90" as="targetPoint" />
            <mxPoint x="735" y="140" as="sourcePoint" />
          </mxGeometry>
        </mxCell>
        <mxCell id="wtO21gAcNz2oJEFU-99T-23" style="edgeStyle=orthogonalEdgeStyle;rounded=0;orthogonalLoop=1;jettySize=auto;html=1;exitX=1;exitY=0;exitDx=0;exitDy=0;endArrow=oval;endFill=0;endSize=10;" edge="1" parent="1">
          <mxGeometry relative="1" as="geometry">
            <mxPoint x="705" y="90" as="targetPoint" />
            <mxPoint x="705" y="140" as="sourcePoint" />
          </mxGeometry>
        </mxCell>
        <mxCell id="wtO21gAcNz2oJEFU-99T-24" style="edgeStyle=orthogonalEdgeStyle;rounded=0;orthogonalLoop=1;jettySize=auto;html=1;exitX=1;exitY=0;exitDx=0;exitDy=0;endArrow=oval;endFill=0;endSize=10;" edge="1" parent="1">
          <mxGeometry relative="1" as="geometry">
            <mxPoint x="675" y="90" as="targetPoint" />
            <mxPoint x="675" y="140" as="sourcePoint" />
          </mxGeometry>
        </mxCell>
        <mxCell id="wtO21gAcNz2oJEFU-99T-25" style="edgeStyle=orthogonalEdgeStyle;rounded=0;orthogonalLoop=1;jettySize=auto;html=1;exitX=1;exitY=0;exitDx=0;exitDy=0;endArrow=oval;endFill=1;endSize=10;" edge="1" parent="1">
          <mxGeometry relative="1" as="geometry">
            <mxPoint x="645" y="90" as="targetPoint" />
            <mxPoint x="645" y="140" as="sourcePoint" />
          </mxGeometry>
        </mxCell>
        <mxCell id="wtO21gAcNz2oJEFU-99T-26" value="Código" style="rounded=1;whiteSpace=wrap;html=1;rotation=-90;" vertex="1" parent="1">
          <mxGeometry x="615" y="40" width="60" height="30" as="geometry" />
        </mxCell>
        <mxCell id="wtO21gAcNz2oJEFU-99T-27" value="Título" style="rounded=1;whiteSpace=wrap;html=1;rotation=-90;" vertex="1" parent="1">
          <mxGeometry x="645" y="40" width="60" height="30" as="geometry" />
        </mxCell>
        <mxCell id="wtO21gAcNz2oJEFU-99T-28" value="Sinopse" style="rounded=1;whiteSpace=wrap;html=1;rotation=-90;" vertex="1" parent="1">
          <mxGeometry x="675" y="40" width="60" height="30" as="geometry" />
        </mxCell>
        <mxCell id="wtO21gAcNz2oJEFU-99T-29" value="Ano" style="rounded=1;whiteSpace=wrap;html=1;rotation=-90;" vertex="1" parent="1">
          <mxGeometry x="705" y="40" width="60" height="30" as="geometry" />
        </mxCell>
        <mxCell id="wtO21gAcNz2oJEFU-99T-30" value="Duração" style="rounded=1;whiteSpace=wrap;html=1;rotation=-90;" vertex="1" parent="1">
          <mxGeometry x="735" y="40" width="60" height="30" as="geometry" />
        </mxCell>
        <mxCell id="wtO21gAcNz2oJEFU-99T-31" style="edgeStyle=orthogonalEdgeStyle;rounded=0;orthogonalLoop=1;jettySize=auto;html=1;exitX=1;exitY=0;exitDx=0;exitDy=0;endArrow=oval;endFill=0;endSize=10;" edge="1" parent="1">
          <mxGeometry relative="1" as="geometry">
            <mxPoint x="825" y="90" as="targetPoint" />
            <mxPoint x="825" y="140" as="sourcePoint" />
          </mxGeometry>
        </mxCell>
        <mxCell id="wtO21gAcNz2oJEFU-99T-32" style="edgeStyle=orthogonalEdgeStyle;rounded=0;orthogonalLoop=1;jettySize=auto;html=1;exitX=1;exitY=0;exitDx=0;exitDy=0;endArrow=oval;endFill=0;endSize=10;" edge="1" parent="1">
          <mxGeometry relative="1" as="geometry">
            <mxPoint x="795" y="90" as="targetPoint" />
            <mxPoint x="795" y="140" as="sourcePoint" />
          </mxGeometry>
        </mxCell>
        <mxCell id="wtO21gAcNz2oJEFU-99T-33" value="Gênero" style="rounded=1;whiteSpace=wrap;html=1;rotation=-90;" vertex="1" parent="1">
          <mxGeometry x="765" y="40" width="60" height="30" as="geometry" />
        </mxCell>
        <mxCell id="wtO21gAcNz2oJEFU-99T-34" value="Atores" style="rounded=1;whiteSpace=wrap;html=1;rotation=-90;" vertex="1" parent="1">
          <mxGeometry x="795" y="40" width="60" height="30" as="geometry" />
        </mxCell>
        <mxCell id="wtO21gAcNz2oJEFU-99T-35" style="edgeStyle=orthogonalEdgeStyle;rounded=0;orthogonalLoop=1;jettySize=auto;html=1;exitX=1;exitY=0;exitDx=0;exitDy=0;endArrow=oval;endFill=0;endSize=10;" edge="1" parent="1">
          <mxGeometry relative="1" as="geometry">
            <mxPoint x="491.75" y="90" as="targetPoint" />
            <mxPoint x="491.75" y="140" as="sourcePoint" />
          </mxGeometry>
        </mxCell>
        <mxCell id="wtO21gAcNz2oJEFU-99T-36" style="edgeStyle=orthogonalEdgeStyle;rounded=0;orthogonalLoop=1;jettySize=auto;html=1;exitX=1;exitY=0;exitDx=0;exitDy=0;endArrow=oval;endFill=0;endSize=10;" edge="1" parent="1">
          <mxGeometry relative="1" as="geometry">
            <mxPoint x="461.75" y="90" as="targetPoint" />
            <mxPoint x="461.75" y="140" as="sourcePoint" />
          </mxGeometry>
        </mxCell>
        <mxCell id="wtO21gAcNz2oJEFU-99T-37" value="Assistidos" style="rounded=1;whiteSpace=wrap;html=1;rotation=-90;" vertex="1" parent="1">
          <mxGeometry x="431.75" y="40" width="60" height="30" as="geometry" />
        </mxCell>
        <mxCell id="wtO21gAcNz2oJEFU-99T-38" value="Data" style="rounded=1;whiteSpace=wrap;html=1;rotation=-90;" vertex="1" parent="1">
          <mxGeometry x="461.75" y="40" width="60" height="30" as="geometry" />
        </mxCell>
        <mxCell id="wtO21gAcNz2oJEFU-99T-39" value="Classificação" style="rounded=1;whiteSpace=wrap;html=1;rotation=0;" vertex="1" parent="1">
          <mxGeometry x="870" y="155" width="80" height="30" as="geometry" />
        </mxCell>
      </root>
    </mxGraphModel>
  </diagram>
</mxfile>
